{
  "source": "C:\\Users\\Peter\\Desktop\\stuff\\MIUN\\quantitative_research\\video_compression\\videos\\BVI-HD\\BVI-HD_CDVL_videos\\ORIG\\BubblesPitcher_1920x1080_60fps.mp4",
  "output": "C:\\Users\\Peter\\Desktop\\stuff\\MIUN\\quantitative_research\\video_compression\\compressed_videos\\BVI-HD\\av1\\3\\BubblesPitcher_1920x1080_60fps_av1.mkv",
  "codec": "av1",
  "ok": "Input #0, mov,mp4,m4a,3gp,3g2,mj2, from 'C:\\Users\\Peter\\Desktop\\stuff\\MIUN\\quantitative_research\\video_compression\\videos\\BVI-HD\\BVI-HD_CDVL_videos\\ORIG\\BubblesPitcher_1920x1080_60fps.mp4':\n  Metadata:\n    major_brand     : isom\n    minor_version   : 512\n    compatible_brands: isomiso2avc1mp41\n    encoder         : Lavf54.28.101\n  Duration: 00:00:05.00, start: 0.000000, bitrate: 188849 kb/s\n  Stream #0:0[0x1](und): Video: h264 (High 4:4:4 Predictive) (avc1 / 0x31637661), yuv420p(progressive), 1920x1080, 188844 kb/s, 60 fps, 60 tbr, 60 tbn (default)\n    Metadata:\n      handler_name    : VideoHandler\n      vendor_id       : [0][0][0][0]\n[out#0/matroska @ 0000017d35eecd80] Codec AVOption b:a (set bitrate (in bits/s)) has not been used for any stream. The most likely reason is either wrong type (e.g. a video option with no video streams) or that it is a private option of some decoder which was not actually used for any stream.\nStream mapping:\n  Stream #0:0 -> #0:0 (h264 (native) -> av1 (libsvtav1))\nPress [q] to stop, [?] for help\nSvt[info]: -------------------------------------------\nSvt[info]: SVT [version]:\tSVT-AV1 Encoder Lib v3.1.0-19-g6ecfe8ec\nSvt[info]: SVT [build]  :\tGCC 15.2.0\t 64 bit\nSvt[info]: LIB Build date: Aug 17 2025 11:37:13\nSvt[info]: -------------------------------------------\nSvt[info]: Level of Parallelism: 5\nSvt[info]: Number of PPCS 93\nSvt[info]: [asm level on system : up to avx2]\nSvt[info]: [asm level selected : up to avx2]\nSvt[info]: -------------------------------------------\nSvt[info]: SVT [config]: main profile\ttier (auto)\tlevel (auto)\nSvt[info]: SVT [config]: width / height / fps numerator / fps denominator \t\t: 1920 / 1080 / 60 / 1\nSvt[info]: SVT [config]: bit-depth / color format \t\t\t\t\t: 8 / YUV420\nSvt[info]: SVT [config]: preset / tune / pred struct \t\t\t\t\t: 4 / PSNR / random access\nSvt[info]: SVT [config]: gop size / mini-gop size / key-frame type \t\t\t: 321 / 16 / key frame\nSvt[info]: SVT [config]: BRC mode / target bitrate (kbps)\t\t\t\t: VBR / 3000 \nSvt[info]: SVT [config]: AQ mode / Variance Boost \t\t\t\t\t: 2 / 0\nSvt[info]: SVT [config]: sharpness / luminance-based QP bias \t\t\t\t: 0 / 0\nSvt[info]: SVT [config]: QP scale compress strength \t\t\t\t\t: 0\nSvt[info]: -------------------------------------------\nOutput #0, matroska, to 'C:\\Users\\Peter\\Desktop\\stuff\\MIUN\\quantitative_research\\video_compression\\compressed_videos\\BVI-HD\\av1\\3\\BubblesPitcher_1920x1080_60fps_av1.mkv':\n  Metadata:\n    major_brand     : isom\n    minor_version   : 512\n    compatible_brands: isomiso2avc1mp41\n    encoder         : Lavf62.3.100\n  Stream #0:0(und): Video: av1 (AV01 / 0x31305641), yuv420p(tv, progressive), 1920x1080, q=2-31, 3000 kb/s, 60 fps, 1k tbn (default)\n    Metadata:\n      encoder         : Lavc62.11.100 libsvtav1\n      handler_name    : VideoHandler\n      vendor_id       : [0][0][0][0]\n    Side data:\n      cpb: bitrate max/min/avg: 0/0/3000000 buffer size: 3000000 vbv_delay: N/A\nframe=    0 fps=0.0 q=0.0 size=       0KiB time=N/A bitrate=N/A speed=N/A elapsed=0:00:01.05    \nframe=    0 fps=0.0 q=0.0 size=       0KiB time=N/A bitrate=N/A speed=N/A elapsed=0:00:01.62    \nframe=    0 fps=0.0 q=0.0 size=       0KiB time=N/A bitrate=N/A speed=N/A elapsed=0:00:02.16    \nframe=    0 fps=0.0 q=0.0 size=       0KiB time=N/A bitrate=N/A speed=N/A elapsed=0:00:02.69    \nframe=    0 fps=0.0 q=0.0 size=       0KiB time=N/A bitrate=N/A speed=N/A elapsed=0:00:03.20    \nframe=    0 fps=0.0 q=0.0 size=       0KiB time=N/A bitrate=N/A speed=N/A elapsed=0:00:03.71    \nframe=    0 fps=0.0 q=0.0 size=       0KiB time=N/A bitrate=N/A speed=N/A elapsed=0:00:04.24    \nframe=    0 fps=0.0 q=0.0 size=       0KiB time=N/A bitrate=N/A speed=N/A elapsed=0:00:04.79    \nframe=    0 fps=0.0 q=0.0 size=       0KiB time=N/A bitrate=N/A speed=N/A elapsed=0:00:05.32    \nframe=    1 fps=0.2 q=3.0 size=       1KiB time=00:00:00.00 bitrate=N/A speed=   0x elapsed=0:00:05.85    \nframe=    6 fps=0.9 q=29.0 size=       1KiB time=00:00:00.08 bitrate=  68.4kbits/s speed=0.013x elapsed=0:00:06.41    \nframe=    8 fps=1.1 q=30.0 size=       1KiB time=00:00:00.11 bitrate=  48.8kbits/s speed=0.0168x elapsed=0:00:06.95    \nframe=   15 fps=2.0 q=26.0 size=       1KiB time=00:00:00.20 bitrate=  28.5kbits/s speed=0.0265x elapsed=0:00:07.53    \nframe=   20 fps=2.5 q=25.0 size=       1KiB time=00:00:00.31 bitrate=  18.0kbits/s speed=0.0389x elapsed=0:00:08.13    \nframe=   23 fps=2.7 q=27.0 size=       1KiB time=00:00:00.36 bitrate=  15.5kbits/s speed=0.0423x elapsed=0:00:08.67    \nframe=   24 fps=2.6 q=27.0 size=       1KiB time=00:00:00.38 bitrate=  14.9kbits/s speed=0.0415x elapsed=0:00:09.22    \nframe=   29 fps=3.0 q=26.0 size=       1KiB time=00:00:00.46 bitrate=  12.2kbits/s speed=0.0477x elapsed=0:00:09.78    \nframe=   31 fps=3.0 q=26.0 size=       1KiB time=00:00:00.50 bitrate=  11.4kbits/s speed=0.0481x elapsed=0:00:10.39    \nframe=   34 fps=3.1 q=22.0 size=       1KiB time=00:00:00.55 bitrate=  10.4kbits/s speed=0.0504x elapsed=0:00:10.91    \nframe=   37 fps=3.2 q=24.0 size=       1KiB time=00:00:00.60 bitrate=   9.5kbits/s speed=0.0524x elapsed=0:00:11.44    \nframe=   38 fps=3.2 q=26.0 size=       1KiB time=00:00:00.61 bitrate=   9.2kbits/s speed=0.0513x elapsed=0:00:12.01    \nframe=   43 fps=3.4 q=29.0 size=       1KiB time=00:00:00.68 bitrate=   8.3kbits/s speed=0.0544x elapsed=0:00:12.56    \nframe=   47 fps=3.6 q=28.0 size=       1KiB time=00:00:00.76 bitrate=   7.4kbits/s speed=0.0583x elapsed=0:00:13.15    \nframe=   51 fps=3.7 q=29.0 size=       1KiB time=00:00:00.83 bitrate=   6.8kbits/s speed=0.0608x elapsed=0:00:13.69    \nframe=   53 fps=3.7 q=26.0 size=       1KiB time=00:00:00.85 bitrate=   6.7kbits/s speed=0.0596x elapsed=0:00:14.25    \nframe=   55 fps=3.7 q=26.0 size=       1KiB time=00:00:00.90 bitrate=   6.3kbits/s speed=0.0603x elapsed=0:00:14.91    \nframe=   59 fps=3.8 q=29.0 size=       1KiB time=00:00:00.96 bitrate=   5.9kbits/s speed=0.0625x elapsed=0:00:15.47    \nframe=   66 fps=4.1 q=29.0 size=       1KiB time=00:00:01.08 bitrate=   5.3kbits/s speed=0.0674x elapsed=0:00:16.08    \nframe=   68 fps=4.1 q=29.0 size=       1KiB time=00:00:01.11 bitrate=   5.1kbits/s speed=0.0669x elapsed=0:00:16.68    \nframe=   69 fps=4.0 q=28.0 size=       1KiB time=00:00:01.13 bitrate=   5.0kbits/s speed=0.0653x elapsed=0:00:17.36    \nframe=   73 fps=4.1 q=16.0 size=       1KiB time=00:00:01.20 bitrate=   4.7kbits/s speed=0.0669x elapsed=0:00:17.94    \nframe=   75 fps=4.1 q=31.0 size=       1KiB time=00:00:01.23 bitrate=   4.6kbits/s speed=0.0667x elapsed=0:00:18.49    \nframe=   82 fps=4.3 q=31.0 size=       1KiB time=00:00:01.35 bitrate=   4.2kbits/s speed=0.0709x elapsed=0:00:19.02    \nframe=   84 fps=4.3 q=30.0 size=       1KiB time=00:00:01.38 bitrate=   4.1kbits/s speed=0.0706x elapsed=0:00:19.58    \nframe=   85 fps=4.2 q=31.0 size=       1KiB time=00:00:01.40 bitrate=   4.1kbits/s speed=0.0692x elapsed=0:00:20.23    \nframe=   87 fps=4.2 q=32.0 size=       1KiB time=00:00:01.43 bitrate=   4.0kbits/s speed=0.0687x elapsed=0:00:20.86    \nframe=   91 fps=4.2 q=32.0 size=       1KiB time=00:00:01.50 bitrate=   3.8kbits/s speed=0.0701x elapsed=0:00:21.41    \nframe=   98 fps=4.5 q=32.0 size=       1KiB time=00:00:01.60 bitrate=   3.6kbits/s speed=0.0728x elapsed=0:00:21.98    \nframe=  101 fps=4.5 q=31.0 size=       1KiB time=00:00:01.66 bitrate=   3.4kbits/s speed=0.074x elapsed=0:00:22.53    \nframe=  103 fps=4.4 q=35.0 size=       1KiB time=00:00:01.68 bitrate=   3.4kbits/s speed=0.0727x elapsed=0:00:23.16    \nframe=  106 fps=4.4 q=33.0 size=       1KiB time=00:00:01.75 bitrate=   3.3kbits/s speed=0.0734x elapsed=0:00:23.83    \nframe=  110 fps=4.5 q=33.0 size=       1KiB time=00:00:01.81 bitrate=   3.1kbits/s speed=0.0745x elapsed=0:00:24.40    \nframe=  115 fps=4.6 q=36.0 size=       1KiB time=00:00:01.90 bitrate=   3.0kbits/s speed=0.0761x elapsed=0:00:24.96    \nframe=  116 fps=4.5 q=34.0 size=       1KiB time=00:00:01.91 bitrate=   3.0kbits/s speed=0.0751x elapsed=0:00:25.52    \nframe=  121 fps=4.6 q=25.0 size=       1KiB time=00:00:01.95 bitrate=   2.9kbits/s speed=0.0743x elapsed=0:00:26.25    \nframe=  122 fps=4.5 q=36.0 size=       1KiB time=00:00:02.01 bitrate=   2.8kbits/s speed=0.075x elapsed=0:00:26.89    \nframe=  126 fps=4.6 q=33.0 size=       1KiB time=00:00:02.08 bitrate=   2.7kbits/s speed=0.0758x elapsed=0:00:27.48    \nframe=  129 fps=4.6 q=13.0 size=       1KiB time=00:00:02.13 bitrate=   2.7kbits/s speed=0.0762x elapsed=0:00:28.00    \nframe=  133 fps=4.7 q=33.0 size=       1KiB time=00:00:02.18 bitrate=   2.6kbits/s speed=0.0764x elapsed=0:00:28.58    \nframe=  134 fps=4.6 q=36.0 size=       1KiB time=00:00:02.21 bitrate=   2.6kbits/s speed=0.0757x elapsed=0:00:29.29    \nframe=  137 fps=4.6 q=22.0 size=       1KiB time=00:00:02.26 bitrate=   2.5kbits/s speed=0.0754x elapsed=0:00:30.06    \nframe=  139 fps=4.5 q=39.0 size=       1KiB time=00:00:02.28 bitrate=   2.5kbits/s speed=0.0741x elapsed=0:00:30.80    \nframe=  141 fps=4.5 q=37.0 size=       1KiB time=00:00:02.33 bitrate=   2.4kbits/s speed=0.0744x elapsed=0:00:31.37    \nframe=  142 fps=4.4 q=42.0 size=       1KiB time=00:00:02.35 bitrate=   2.4kbits/s speed=0.0736x elapsed=0:00:31.92    \nframe=  145 fps=4.5 q=18.0 size=       1KiB time=00:00:02.40 bitrate=   2.4kbits/s speed=0.0738x elapsed=0:00:32.51    \nframe=  149 fps=4.5 q=38.0 size=       1KiB time=00:00:02.45 bitrate=   2.3kbits/s speed=0.074x elapsed=0:00:33.12    \nframe=  149 fps=4.4 q=38.0 size=       1KiB time=00:00:02.46 bitrate=   2.3kbits/s speed=0.073x elapsed=0:00:33.80    \nframe=  151 fps=4.4 q=41.0 size=       1KiB time=00:00:02.50 bitrate=   2.3kbits/s speed=0.0725x elapsed=0:00:34.47    \nframe=  154 fps=4.4 q=45.0 size=       1KiB time=00:00:02.55 bitrate=   2.2kbits/s speed=0.0726x elapsed=0:00:35.14    \nframe=  157 fps=4.4 q=39.0 size=       1KiB time=00:00:02.60 bitrate=   2.2kbits/s speed=0.0728x elapsed=0:00:35.69    \nframe=  161 fps=4.4 q=22.0 size=       1KiB time=00:00:02.65 bitrate=   2.1kbits/s speed=0.0731x elapsed=0:00:36.23    \nframe=  164 fps=4.5 q=46.0 size=       1KiB time=00:00:02.71 bitrate=   2.1kbits/s speed=0.0738x elapsed=0:00:36.80    \nframe=  165 fps=4.4 q=40.0 size=       1KiB time=00:00:02.73 bitrate=   2.1kbits/s speed=0.0731x elapsed=0:00:37.37    \nframe=  165 fps=4.3 q=40.0 size=       1KiB time=00:00:02.73 bitrate=   2.1kbits/s speed=0.0718x elapsed=0:00:38.05    \nframe=  167 fps=4.3 q=43.0 size=       1KiB time=00:00:02.75 bitrate=   2.1kbits/s speed=0.0712x elapsed=0:00:38.64    \nframe=  169 fps=4.3 q=36.0 size=       1KiB time=00:00:02.80 bitrate=   2.0kbits/s speed=0.0712x elapsed=0:00:39.32    \nframe=  173 fps=4.3 q=41.0 size=       1KiB time=00:00:02.86 bitrate=   2.0kbits/s speed=0.0719x elapsed=0:00:39.87    \nframe=  177 fps=4.4 q=26.0 size=       1KiB time=00:00:02.93 bitrate=   1.9kbits/s speed=0.0726x elapsed=0:00:40.42    \nframe=  180 fps=4.4 q=46.0 size=       1KiB time=00:00:02.98 bitrate=   1.9kbits/s speed=0.0728x elapsed=0:00:40.98    \nframe=  181 fps=4.3 q=44.0 size=       1KiB time=00:00:02.98 bitrate=   1.9kbits/s speed=0.0716x elapsed=0:00:41.69    \nframe=  181 fps=4.3 q=44.0 size=       1KiB time=00:00:03.00 bitrate=   1.9kbits/s speed=0.0708x elapsed=0:00:42.36    \nframe=  183 fps=4.3 q=45.0 size=       1KiB time=00:00:03.03 bitrate=   1.9kbits/s speed=0.0705x elapsed=0:00:43.02    \nframe=  185 fps=4.2 q=41.0 size=       1KiB time=00:00:03.06 bitrate=   1.9kbits/s speed=0.0703x elapsed=0:00:43.59    \nframe=  187 fps=4.2 q=44.0 size=       1KiB time=00:00:03.10 bitrate=   1.8kbits/s speed=0.0702x elapsed=0:00:44.13    \nframe=  191 fps=4.3 q=44.0 size=       1KiB time=00:00:03.16 bitrate=   1.8kbits/s speed=0.0708x elapsed=0:00:44.70    \nframe=  194 fps=4.3 q=48.0 size=       1KiB time=00:00:03.21 bitrate=   1.8kbits/s speed=0.071x elapsed=0:00:45.27    \nframe=  196 fps=4.3 q=48.0 size=       1KiB time=00:00:03.25 bitrate=   1.8kbits/s speed=0.0709x elapsed=0:00:45.83    \nframe=  197 fps=4.2 q=44.0 size=       1KiB time=00:00:03.26 bitrate=   1.7kbits/s speed=0.0703x elapsed=0:00:46.45    \nframe=  197 fps=4.2 q=44.0 size=       1KiB time=00:00:03.26 bitrate=   1.7kbits/s speed=0.0694x elapsed=0:00:47.06    \nframe=  205 fps=4.3 q=42.0 size=       1KiB time=00:00:03.40 bitrate=   1.7kbits/s speed=0.0714x elapsed=0:00:47.59    \nframe=  205 fps=4.3 q=42.0 size=       1KiB time=00:00:03.40 bitrate=   1.7kbits/s speed=0.0707x elapsed=0:00:48.11    \nframe=  205 fps=4.2 q=42.0 size=       1KiB time=00:00:03.40 bitrate=   1.7kbits/s speed=0.0699x elapsed=0:00:48.62    \nframe=  209 fps=4.3 q=35.0 size=       1KiB time=00:00:03.46 bitrate=   1.6kbits/s speed=0.0705x elapsed=0:00:49.14    \nframe=  213 fps=4.3 q=46.0 size=       1KiB time=00:00:03.53 bitrate=   1.6kbits/s speed=0.0711x elapsed=0:00:49.68    \nframe=  217 fps=4.3 q=42.0 size=       1KiB time=00:00:03.60 bitrate=   1.6kbits/s speed=0.0717x elapsed=0:00:50.22    \nframe=  217 fps=4.3 q=42.0 size=       1KiB time=00:00:03.60 bitrate=   1.6kbits/s speed=0.0709x elapsed=0:00:50.76    \nframe=  221 fps=4.3 q=46.0 size=       1KiB time=00:00:03.66 bitrate=   1.6kbits/s speed=0.0715x elapsed=0:00:51.30    \nframe=  225 fps=4.3 q=35.0 size=       1KiB time=00:00:03.73 bitrate=   1.5kbits/s speed=0.072x elapsed=0:00:51.85    \nframe=  229 fps=4.4 q=48.0 size=       1KiB time=00:00:03.80 bitrate=   1.5kbits/s speed=0.0725x elapsed=0:00:52.38    \nframe=  233 fps=4.4 q=45.0 size=       1KiB time=00:00:03.86 bitrate=   1.5kbits/s speed=0.0731x elapsed=0:00:52.90    \nframe=  233 fps=4.4 q=45.0 size=       1KiB time=00:00:03.86 bitrate=   1.5kbits/s speed=0.0724x elapsed=0:00:53.44    \nframe=  237 fps=4.4 q=49.0 size=       1KiB time=00:00:03.93 bitrate=   1.4kbits/s speed=0.0729x elapsed=0:00:53.95    \nframe=  241 fps=4.4 q=37.0 size=       1KiB time=00:00:04.00 bitrate=   1.4kbits/s speed=0.0734x elapsed=0:00:54.47    \nframe=  249 fps=4.5 q=49.0 size=       1KiB time=00:00:04.13 bitrate=   1.4kbits/s speed=0.0751x elapsed=0:00:55.01    \nframe=  249 fps=4.5 q=49.0 size=       1KiB time=00:00:04.13 bitrate=   1.4kbits/s speed=0.0744x elapsed=0:00:55.52    \nframe=  253 fps=4.5 q=50.0 size=       1KiB time=00:00:04.20 bitrate=   1.4kbits/s speed=0.0749x elapsed=0:00:56.04    \nframe=  257 fps=4.5 q=39.0 size=       1KiB time=00:00:04.26 bitrate=   1.3kbits/s speed=0.0755x elapsed=0:00:56.54    \nframe=  261 fps=4.6 q=50.0 size=       1KiB time=00:00:04.33 bitrate=   1.3kbits/s speed=0.0759x elapsed=0:00:57.06    \nframe=  265 fps=4.6 q=49.0 size=       1KiB time=00:00:04.40 bitrate=   1.3kbits/s speed=0.0764x elapsed=0:00:57.62    \nframe=  265 fps=4.6 q=49.0 size=       1KiB time=00:00:04.40 bitrate=   1.3kbits/s speed=0.0757x elapsed=0:00:58.15    \nframe=  269 fps=4.6 q=50.0 size=       1KiB time=00:00:04.46 bitrate=   1.3kbits/s speed=0.0761x elapsed=0:00:58.68    \nframe=  273 fps=4.6 q=40.0 size=       1KiB time=00:00:04.53 bitrate=   1.3kbits/s speed=0.0766x elapsed=0:00:59.20    \nframe=  281 fps=4.7 q=49.0 size=       1KiB time=00:00:04.66 bitrate=   1.2kbits/s speed=0.0781x elapsed=0:00:59.72    \nframe=  281 fps=4.7 q=49.0 size=       1KiB time=00:00:04.66 bitrate=   1.2kbits/s speed=0.0775x elapsed=0:01:00.24    \nframe=  285 fps=4.7 q=51.0 size=       1KiB time=00:00:04.73 bitrate=   1.2kbits/s speed=0.0779x elapsed=0:01:00.75    \nframe=  285 fps=4.7 q=51.0 size=       1KiB time=00:00:04.73 bitrate=   1.2kbits/s speed=0.0773x elapsed=0:01:01.27    \n[out#0/matroska @ 0000017d35eecd80] video:2263KiB audio:0KiB subtitle:0KiB other streams:0KiB global headers:0KiB muxing overhead: 0.092737%\nframe=  300 fps=4.9 q=52.0 Lsize=    2265KiB time=00:00:04.98 bitrate=3723.5kbits/s speed=0.0812x elapsed=0:01:01.34    \n",
  "seconds": 61.75824785232544,
  "probe_out": {}
}